<?xml version="1.0" encoding="utf-8"?>
<!-- Generator: Adobe Illustrator 16.0.0, SVG Export Plug-In . SVG Version: 6.00 Build 0)  -->
<!DOCTYPE svg PUBLIC "-//W3C//DTD SVG 1.1//EN" "http://www.w3.org/Graphics/SVG/1.1/DTD/svg11.dtd">
<svg version="1.1" id="Layer_1" xmlns="http://www.w3.org/2000/svg" xmlns:xlink="http://www.w3.org/1999/xlink" x="0px" y="0px"
	 width="612px" height="792px" viewBox="0 0 612 792" enable-background="new 0 0 612 792" xml:space="preserve">
<path fill="#F85C70" d="M25.5,124C11.369,124,0,135.369,0,149.5S11.369,175,25.5,175h55.356l64.068,336.281
	C147.263,523.287,157.781,532,170,532h348.5c14.131,0,25.5-11.369,25.5-25.5S532.631,481,518.5,481H191.144l-9.668-51h336.812
	c15.194,0,28.582-10.094,32.726-24.756l57.375-204c6.056-21.675-10.2-43.244-32.726-43.244H129.625l-2.55-13.281
	C124.737,132.712,114.219,124,102,124H25.5z M187,668c28.156,0,51-22.844,51-51s-22.844-51-51-51s-51,22.844-51,51
	S158.844,668,187,668z M544,617c0-28.156-22.844-51-51-51s-51,22.844-51,51s22.844,51,51,51S544,645.156,544,617z"/>
</svg>
