<?xml version="1.0" encoding="utf-8"?>
<!-- Generator: Adobe Illustrator 16.0.0, SVG Export Plug-In . SVG Version: 6.00 Build 0)  -->
<!DOCTYPE svg PUBLIC "-//W3C//DTD SVG 1.1//EN" "http://www.w3.org/Graphics/SVG/1.1/DTD/svg11.dtd">
<svg version="1.1" id="Layer_1" xmlns="http://www.w3.org/2000/svg" xmlns:xlink="http://www.w3.org/1999/xlink" x="0px" y="0px"
	 width="612px" height="792px" viewBox="0 0 612 792" enable-background="new 0 0 612 792" xml:space="preserve">
<path fill="#F85C70" d="M252.211,98.726c-7.172-7.53-17.93-10.399-27.97-7.77c-10.041,2.63-17.81,10.639-20.44,20.679
	l-18.886,74.707l-74.109-20.918c-10.041-2.869-20.799,0-28.09,7.292c-7.292,7.291-10.16,18.049-7.292,28.09l20.918,74.109
	L21.635,293.92c-10.041,2.51-17.93,10.399-20.679,20.44c-2.749,10.041,0.239,20.679,7.77,27.851L63.949,396L8.726,449.789
	c-7.53,7.172-10.399,17.93-7.77,27.971c2.63,10.04,10.639,17.81,20.679,20.439l74.707,18.886l-20.918,74.109
	c-2.869,10.041,0,20.799,7.292,28.09c7.291,7.292,18.049,10.16,28.09,7.292l74.109-20.918l18.886,74.707
	c2.51,10.04,10.399,17.93,20.44,20.679s20.679-0.239,27.97-7.65L306,638.17l53.789,55.224c7.291,7.411,17.93,10.399,27.971,7.65
	c10.04-2.749,17.81-10.639,20.439-20.679l18.886-74.707l74.109,20.918c10.041,2.868,20.799,0,28.09-7.292
	c7.292-7.291,10.16-18.049,7.292-28.09l-20.918-74.109l74.707-18.886c10.04-2.51,17.93-10.399,20.679-20.439
	c2.749-10.041-0.239-20.68-7.65-27.971L548.17,396l55.224-53.789c7.411-7.292,10.399-17.93,7.65-27.97s-10.639-17.81-20.679-20.44
	l-74.707-18.886l20.918-74.109c2.868-10.041,0-20.799-7.292-28.09c-7.291-7.292-18.049-10.16-28.09-7.292l-74.109,20.918
	l-19.005-74.707c-2.511-10.041-10.399-17.93-20.44-20.679c-10.04-2.749-20.679,0.239-27.851,7.77L306,153.949L252.211,98.726z"/>
</svg>
