<?xml version="1.0" encoding="utf-8"?>
<!-- Generator: Adobe Illustrator 16.0.0, SVG Export Plug-In . SVG Version: 6.00 Build 0)  -->
<!DOCTYPE svg PUBLIC "-//W3C//DTD SVG 1.1//EN" "http://www.w3.org/Graphics/SVG/1.1/DTD/svg11.dtd">
<svg version="1.1" id="Layer_1" xmlns="http://www.w3.org/2000/svg" xmlns:xlink="http://www.w3.org/1999/xlink" x="0px" y="0px"
	 width="612px" height="792px" viewBox="0 0 612 792" enable-background="new 0 0 612 792" xml:space="preserve">
<path fill="#F85C70" d="M375.615,152.348c-16.257-4.686-33.182,4.781-37.868,21.037l-122.399,428.4
	c-4.686,16.256,4.781,33.182,21.037,37.867c16.256,4.686,33.182-4.781,37.868-21.037l122.4-428.4
	C401.338,173.959,391.871,157.033,375.615,152.348z M452.688,267.193c-11.953,11.953-11.953,31.365,0,43.318L538.082,396
	l-85.489,85.488c-11.953,11.953-11.953,31.365,0,43.318s31.365,11.953,43.318,0l107.101-107.1c11.953-11.953,11.953-31.365,0-43.318
	l-107.101-107.1c-11.953-11.953-31.365-11.953-43.318,0L452.688,267.193z M159.407,267.193c-11.953-11.953-31.365-11.953-43.318,0
	l-107.1,107.1c-11.953,11.953-11.953,31.365,0,43.318l107.1,107.1c11.953,11.953,31.365,11.953,43.318,0s11.953-31.364,0-43.317
	L73.918,396l85.489-85.489C171.36,298.558,171.36,279.146,159.407,267.193L159.407,267.193z"/>
</svg>
