<?xml version="1.0" encoding="utf-8"?>
<!-- Generator: Adobe Illustrator 16.0.0, SVG Export Plug-In . SVG Version: 6.00 Build 0)  -->
<!DOCTYPE svg PUBLIC "-//W3C//DTD SVG 1.1//EN" "http://www.w3.org/Graphics/SVG/1.1/DTD/svg11.dtd">
<svg version="1.1" id="Layer_1" xmlns="http://www.w3.org/2000/svg" xmlns:xlink="http://www.w3.org/1999/xlink" x="0px" y="0px"
	 width="47px" height="46px" viewBox="0 0 47 46" enable-background="new 0 0 47 46" xml:space="preserve">
<path fill="none" stroke="#404145" stroke-width="1.5" stroke-linejoin="round" stroke-miterlimit="10" d="M23.461,6.414v2"/>
<path fill="none" stroke="#404145" stroke-width="1.5" stroke-linejoin="round" stroke-miterlimit="10" d="M23.461,10.414v2"/>
<path fill="none" stroke="#404145" stroke-width="1.5" stroke-linejoin="round" stroke-miterlimit="10" d="M22.461,9.414h-2"/>
<path fill="none" stroke="#404145" stroke-width="1.5" stroke-linejoin="round" stroke-miterlimit="10" d="M26.461,9.414h-2"/>
<path fill="none" stroke="#404145" stroke-width="1.5" stroke-linejoin="round" stroke-miterlimit="10" d="M39.461,20.414v3"/>
<path fill="none" stroke="#404145" stroke-width="1.5" stroke-linejoin="round" stroke-miterlimit="10" d="M39.461,27.414v3"/>
<path fill="none" stroke="#404145" stroke-width="1.5" stroke-linejoin="round" stroke-miterlimit="10" d="M37.461,25.414h-3"/>
<path fill="none" stroke="#404145" stroke-width="1.5" stroke-linejoin="round" stroke-miterlimit="10" d="M44.461,25.414h-3"/>
<path fill="none" stroke="#404145" stroke-width="1.5" stroke-linejoin="round" stroke-miterlimit="10" d="M33.461,33.414l-2,2"/>
<path fill="none" stroke="#404145" stroke-width="1.5" stroke-linejoin="round" stroke-miterlimit="10" d="M28.461,38.414
	l-2.07,2.08"/>
<path fill="none" stroke="#404145" stroke-width="1.5" stroke-linejoin="round" stroke-miterlimit="10" d="M28.461,35.414l-2.07-2"
	/>
<path fill="none" stroke="#404145" stroke-width="1.5" stroke-linejoin="round" stroke-miterlimit="10" d="M33.461,40.414l-2-2"/>
<path fill="none" stroke="#404145" stroke-width="1.5" stroke-linejoin="round" stroke-miterlimit="10" d="M16.539,13.414l-2,2"/>
<path fill="none" stroke="#404145" stroke-width="1.5" stroke-linejoin="round" stroke-miterlimit="10" d="M11.541,18.414
	l-2.08,2.08"/>
<path fill="none" stroke="#404145" stroke-width="1.5" stroke-linejoin="round" stroke-miterlimit="10" d="M11.541,15.414l-2.08-2"
	/>
<path fill="none" stroke="#404145" stroke-width="1.5" stroke-linejoin="round" stroke-miterlimit="10" d="M16.539,20.414l-2-2"/>
<path opacity="0.8" fill="#F85C70" stroke="#404145" stroke-width="1.5" stroke-linejoin="round" stroke-miterlimit="10" d="
	M1,38.543c3.96,3.891,8.14,4.32,10.99,3.561c3.88-1.04,4.92-3.96,4.3-6.29s-2.64-4.13-6.22-3.17C6.5,33.604,5.69,38.073,1,38.543z"
	/>
<path fill="none" stroke="#404145" stroke-width="1.5" stroke-miterlimit="10" d="M16.572,35.523l8.8-7.229
	c3.93-3.931,19.53-21.08,20.28-22.45c0.449-0.82,0.379-1.79-0.19-2.36c-0.569-0.57-1.55-0.64-2.36-0.189
	c-1.359,0.75-18.51,16.34-22.45,20.28l-7.23,8.81"/>
<path fill="none" stroke="#404145" stroke-width="1.5" stroke-miterlimit="10" d="M25.471,27.474l-3.971-3.95"/>
</svg>
