<?xml version="1.0" encoding="utf-8"?>
<!-- Generator: Adobe Illustrator 16.0.0, SVG Export Plug-In . SVG Version: 6.00 Build 0)  -->
<!DOCTYPE svg PUBLIC "-//W3C//DTD SVG 1.1//EN" "http://www.w3.org/Graphics/SVG/1.1/DTD/svg11.dtd">
<svg version="1.1" id="Layer_1" xmlns="http://www.w3.org/2000/svg" xmlns:xlink="http://www.w3.org/1999/xlink" x="0px" y="0px"
	 width="46px" height="46px" viewBox="0 0 46 46" enable-background="new 0 0 46 46" xml:space="preserve">
<path opacity="0.8" fill="#F85C70" d="M26,32v12H1V25h18.269"/>
<path fill="none" stroke="#404145" stroke-width="1.5" stroke-linejoin="round" stroke-miterlimit="10" d="M26,32v12H1V25h18.269"/>
<path fill="none" stroke="#404145" stroke-width="1.5" stroke-linejoin="round" stroke-miterlimit="10" d="M45,12H21v18h24V12z"/>
<path fill="none" stroke="#404145" stroke-width="1.5" stroke-linejoin="round" stroke-miterlimit="10" d="M21,27l8-8l7,7"/>
<path fill="none" stroke="#404145" stroke-width="1.5" stroke-linejoin="round" stroke-miterlimit="10" d="M33,23l3-3l9,9"/>
<path fill="none" stroke="#404145" stroke-width="1.5" stroke-linejoin="round" stroke-miterlimit="10" d="M38,17h2"/>
<path fill="none" stroke="#404145" stroke-width="1.5" stroke-linejoin="round" stroke-miterlimit="10" d="M27,10V2H6v21"/>
<path fill="none" stroke="#404145" stroke-width="1.5" stroke-linejoin="round" stroke-miterlimit="10" d="M9,38l-4-3l4-3"/>
<path fill="none" stroke="#404145" stroke-width="1.5" stroke-linejoin="round" stroke-miterlimit="10" d="M17,38l4-3l-4-3"/>
<path fill="none" stroke="#404145" stroke-width="1.5" stroke-linejoin="round" stroke-miterlimit="10" d="M15,30l-4,10"/>
<path fill="none" stroke="#404145" stroke-width="1.5" stroke-linejoin="round" stroke-miterlimit="10" d="M11,8h11"/>
<path fill="none" stroke="#404145" stroke-width="1.5" stroke-linejoin="round" stroke-miterlimit="10" d="M11,12h7"/>
<path fill="none" stroke="#404145" stroke-width="1.5" stroke-linejoin="round" stroke-miterlimit="10" d="M11,16h7"/>
<path fill="none" stroke="#404145" stroke-width="1.5" stroke-linejoin="round" stroke-miterlimit="10" d="M11,20h7"/>
</svg>
