<?xml version="1.0" encoding="utf-8"?>
<!-- Generator: Adobe Illustrator 16.0.0, SVG Export Plug-In . SVG Version: 6.00 Build 0)  -->
<!DOCTYPE svg PUBLIC "-//W3C//DTD SVG 1.1//EN" "http://www.w3.org/Graphics/SVG/1.1/DTD/svg11.dtd">
<svg version="1.1" id="Layer_1" xmlns="http://www.w3.org/2000/svg" xmlns:xlink="http://www.w3.org/1999/xlink" x="0px" y="0px"
	 width="612px" height="792px" viewBox="0 0 612 792" enable-background="new 0 0 612 792" xml:space="preserve">
<path fill="#F85C70" d="M306,181.8c-7.746,0-15.396,1.339-22.663,3.921L15.109,282.589C6.024,285.936,0,294.542,0,304.2
	s6.024,18.264,15.109,21.611l55.367,19.985C54.793,370.468,45.9,399.634,45.9,430.329V457.2c0,27.157-10.328,55.176-21.324,77.265
	C18.36,546.896,11.284,559.137,3.06,570.42c-3.06,4.112-3.921,9.467-2.199,14.344c1.721,4.877,5.737,8.511,10.71,9.754l61.2,15.3
	c4.017,1.052,8.319,0.287,11.857-1.912s6.024-5.833,6.79-9.945c8.224-40.928,4.112-77.647-2.008-103.944
	c-3.06-13.579-7.172-27.444-12.909-40.162v-23.524c0-28.879,9.754-56.132,26.679-77.934c12.336-14.822,28.305-26.775,47.048-34.138
	l150.131-59c7.841-3.06,16.735,0.765,19.794,8.606c3.061,7.841-0.765,16.734-8.606,19.794l-150.131,59.001
	c-11.857,4.686-22.281,11.857-30.791,20.655l152.617,55.08c7.268,2.582,14.917,3.921,22.663,3.921
	c7.746,0,15.396-1.339,22.663-3.921l268.324-96.581C605.976,322.56,612,313.858,612,304.2s-6.024-18.265-15.108-21.611
	l-268.229-96.868C321.396,183.139,313.746,181.8,306,181.8z M122.4,541.35c0,33.756,82.238,68.851,183.6,68.851
	s183.6-35.095,183.6-68.851l-14.63-139.038L338.99,451.463c-10.614,3.824-21.802,5.737-32.99,5.737
	c-11.188,0-22.472-1.913-32.991-5.737l-135.979-49.151L122.4,541.35z"/>
</svg>
