<?xml version="1.0" encoding="utf-8"?>
<!-- Generator: Adobe Illustrator 16.0.0, SVG Export Plug-In . SVG Version: 6.00 Build 0)  -->
<!DOCTYPE svg PUBLIC "-//W3C//DTD SVG 1.1//EN" "http://www.w3.org/Graphics/SVG/1.1/DTD/svg11.dtd">
<svg version="1.1" id="Layer_1" xmlns="http://www.w3.org/2000/svg" xmlns:xlink="http://www.w3.org/1999/xlink" x="0px" y="0px"
	 width="47px" height="48px" viewBox="0 0 47 48" enable-background="new 0 0 47 48" xml:space="preserve">
<path fill="none" stroke="#404145" stroke-width="1.5" stroke-linejoin="round" stroke-miterlimit="10" d="M10.988,18V4
	c0-1.66,1.34-3,3-3h29c1.66,0,3,1.34,3,3v25c0,1.66-1.34,3-3,3h-5l-6.25,7.03c-0.609,0.689-1.75,0.26-1.75-0.66V32h-4"/>
<path fill="none" stroke="#404145" stroke-width="1.5" stroke-miterlimit="10" d="M9.988,31c2.29,0,4-1.92,4-4.29v-1.43
	c0-2.37-1.71-4.29-4-4.29s-4,1.92-4,4.29v1.43C5.988,29.09,7.698,31,9.988,31z"/>
<path fill="none" stroke="#404145" stroke-width="1.5" stroke-linejoin="round" stroke-miterlimit="10" d="M13.99,47v-7l2.72,1.359
	c0.77,0.391,1.7,0.23,2.31-0.369L22,38.01c2.21-2.04,2.62-4,1-6c-2.04,1.75-3.96,3.29-5,4c-1.33-0.71-3.92-1.92-6-2
	c-3.35,0-4.27,0-5,0c-3.58,0-6,1.51-6,6v7"/>
<path fill="none" stroke="#404145" stroke-width="1.5" stroke-miterlimit="10" d="M4.988,40v7"/>
<path fill="none" stroke="#404145" stroke-width="1.5" stroke-linejoin="round" stroke-miterlimit="10" d="M28.988,9V4"/>
<path fill="none" stroke="#404145" stroke-width="1.5" stroke-linejoin="round" stroke-miterlimit="10" d="M22.631,10.64l-2.83-2.83
	"/>
<path fill="none" stroke="#404145" stroke-width="1.5" stroke-linejoin="round" stroke-miterlimit="10" d="M20.988,17h-5"/>
<path fill="none" stroke="#404145" stroke-width="1.5" stroke-linejoin="round" stroke-miterlimit="10" d="M22.631,23.37l-2.83,2.83
	"/>
<path fill="none" stroke="#404145" stroke-width="1.5" stroke-linejoin="round" stroke-miterlimit="10" d="M35.359,23.37l2.83,2.83"
	/>
<path fill="none" stroke="#404145" stroke-width="1.5" stroke-linejoin="round" stroke-miterlimit="10" d="M36.988,17h5"/>
<path fill="none" stroke="#404145" stroke-width="1.5" stroke-linejoin="round" stroke-miterlimit="10" d="M35.359,10.64l2.83-2.83"
	/>
<path opacity="0.8" fill="#F85C70" d="M26.988,24v2l1,1h2l1-1v-2"/>
<path fill="none" stroke="#404145" stroke-width="1.5" stroke-linejoin="round" stroke-miterlimit="10" d="M26.988,24v2l1,1h2l1-1
	v-2"/>
<path opacity="0.8" fill="#F85C70" stroke="#404145" stroke-width="1.5" stroke-linejoin="round" stroke-miterlimit="10" d="
	M26.988,24v-1c0-0.9-0.811-1.74-1.439-2.38c-0.94-0.96-1.561-2.16-1.561-3.62c0-2.76,2.24-5,5-5s5,2.24,5,5
	c0,1.47-0.609,2.66-1.561,3.62c-0.629,0.64-1.439,1.47-1.439,2.38v1H26.988z"/>
</svg>
