<?xml version="1.0" encoding="utf-8"?>
<!-- Generator: Adobe Illustrator 16.0.0, SVG Export Plug-In . SVG Version: 6.00 Build 0)  -->
<!DOCTYPE svg PUBLIC "-//W3C//DTD SVG 1.1//EN" "http://www.w3.org/Graphics/SVG/1.1/DTD/svg11.dtd">
<svg version="1.1" id="Layer_1" xmlns="http://www.w3.org/2000/svg" xmlns:xlink="http://www.w3.org/1999/xlink" x="0px" y="0px"
	 width="46px" height="46px" viewBox="0 0 46 46" enable-background="new 0 0 46 46" xml:space="preserve">
<path opacity="0.8" fill="#F85C70" d="M28,40v-3h-2.34c-0.21-1-0.52-1.52-0.91-2.21l2.359-2.36l-3.539-3.539l-2.36,2.359
	c-0.69-0.391-1.43-0.7-2.21-0.91V27h-5v3.34c-0.78,0.21-1.52,0.52-2.21,0.91l-2.36-2.359L5.89,32.43l2.36,2.36
	C7.86,35.48,7.55,36,7.34,37H5v3"/>
<path fill="none" stroke="#404145" stroke-width="1.5" stroke-linejoin="round" stroke-miterlimit="10" d="M28,40v-3h-2.34
	c-0.21-1-0.52-1.52-0.91-2.21l2.359-2.36l-3.539-3.539l-2.36,2.359c-0.69-0.391-1.43-0.7-2.21-0.91V27h-5v3.34
	c-0.78,0.21-1.52,0.52-2.21,0.91l-2.36-2.359L5.89,32.43l2.36,2.36C7.86,35.48,7.55,36,7.34,37H5v3"/>
<path fill="#FFFFFF" d="M13.059,40c0-1.93,1.57-3.5,3.5-3.5s3.5,1.57,3.5,3.5"/>
<path fill="none" stroke="#404145" stroke-width="1.5" stroke-linejoin="round" stroke-miterlimit="10" d="M13.059,40
	c0-1.93,1.57-3.5,3.5-3.5s3.5,1.57,3.5,3.5"/>
<path opacity="0.8" fill="#F85C70" d="M42,14h-3v2.34c-1,0.21-1.52,0.52-2.21,0.91l-2.36-2.36l-3.539,3.54l2.359,2.36
	c-0.391,0.69-0.7,1.21-0.91,2.21H29v5h3c0.21,0.78,0.859,1.52,1.26,2.21L30.9,32.57l3.539,3.539l2.36-2.359
	c0.69,0.391,1.21,0.7,2.21,0.91V37h3"/>
<path fill="none" stroke="#404145" stroke-width="1.5" stroke-linejoin="round" stroke-miterlimit="10" d="M42,14h-3v2.34
	c-1,0.21-1.52,0.52-2.21,0.91l-2.36-2.36l-3.539,3.54l2.359,2.36c-0.391,0.69-0.7,1.21-0.91,2.21H29v5h3
	c0.21,0.78,0.859,1.52,1.26,2.21L30.9,32.57l3.539,3.539l2.36-2.359c0.69,0.391,1.21,0.7,2.21,0.91V37h3"/>
<path fill="#FFFFFF" d="M42,28.939c-1.93,0-3.5-1.569-3.5-3.5c0-1.93,1.57-3.5,3.5-3.5"/>
<path fill="none" stroke="#404145" stroke-width="1.5" stroke-linejoin="round" stroke-miterlimit="10" d="M42,28.939
	c-1.93,0-3.5-1.569-3.5-3.5c0-1.93,1.57-3.5,3.5-3.5"/>
<path fill="none" stroke="#404145" stroke-width="1.5" stroke-miterlimit="10" d="M45,2H1v41h44V2z"/>
<path fill="none" stroke="#404145" stroke-width="1.5" stroke-miterlimit="10" d="M1,8h44"/>
<path fill="none" stroke="#404145" stroke-width="1.5" stroke-miterlimit="10" d="M4,5h2"/>
<path fill="none" stroke="#404145" stroke-width="1.5" stroke-miterlimit="10" d="M8,5h2"/>
<path fill="none" stroke="#404145" stroke-width="1.5" stroke-miterlimit="10" d="M12,5h2"/>
</svg>
