<?xml version="1.0" encoding="utf-8"?>
<!-- Generator: Adobe Illustrator 16.0.0, SVG Export Plug-In . SVG Version: 6.00 Build 0)  -->
<!DOCTYPE svg PUBLIC "-//W3C//DTD SVG 1.1//EN" "http://www.w3.org/Graphics/SVG/1.1/DTD/svg11.dtd">
<svg version="1.1" id="Layer_1" xmlns="http://www.w3.org/2000/svg" xmlns:xlink="http://www.w3.org/1999/xlink" x="0px" y="0px"
	 width="47px" height="46px" viewBox="0 0 47 46" enable-background="new 0 0 47 46" xml:space="preserve">
<path fill="none" stroke="#404145" stroke-width="1.5" stroke-miterlimit="10" d="M33,12V2H1v43h32V35"/>
<path opacity="0.8" fill="#F85C70" stroke="#404145" stroke-width="1.5" stroke-linejoin="round" stroke-miterlimit="10" d="
	M22.281,35.6c-1.66-2.699-1.16-7.609-0.57-9.4l1.65-0.399c0,0-0.42-2.49,1.471-4.9c2.27-2.9,8.729-8.66,21.18-9.35
	c-4.551,5.07-7.791,13.71-8.601,14.979c-1.69,1.15-3.34,1.931-3.34,1.931l1.5,1.46C35.562,29.92,27.352,36.98,22.281,35.6z"/>
<path fill="none" stroke="#404145" stroke-width="1.5" stroke-linecap="round" stroke-miterlimit="10" d="M36.32,18.71
	c-9.489,7.19-14.399,16.3-16.359,22.28"/>
<path fill="none" stroke="#404145" stroke-width="1.5" stroke-miterlimit="10" d="M1,8h32"/>
<path fill="none" stroke="#404145" stroke-width="1.5" stroke-miterlimit="10" d="M4,5h2"/>
<path fill="none" stroke="#404145" stroke-width="1.5" stroke-miterlimit="10" d="M8,5h2"/>
<path fill="none" stroke="#404145" stroke-width="1.5" stroke-miterlimit="10" d="M12,5h2"/>
<path opacity="0.8" fill="#F85C70" stroke="#404145" stroke-width="1.5" stroke-miterlimit="10" d="M16,12H5v10h11V12z"/>
<path fill="none" stroke="#404145" stroke-width="1.5" stroke-miterlimit="10" d="M19,13h10"/>
<path fill="none" stroke="#404145" stroke-width="1.5" stroke-miterlimit="10" d="M19,18h4"/>
<path fill="none" stroke="#404145" stroke-width="1.5" stroke-miterlimit="10" d="M4,27h13"/>
<path fill="none" stroke="#404145" stroke-width="1.5" stroke-miterlimit="10" d="M4,32h13"/>
<path fill="none" stroke="#404145" stroke-width="1.5" stroke-miterlimit="10" d="M4,37h13"/>
</svg>
