<?xml version="1.0" encoding="utf-8"?>
<!-- Generator: Adobe Illustrator 16.0.0, SVG Export Plug-In . SVG Version: 6.00 Build 0)  -->
<!DOCTYPE svg PUBLIC "-//W3C//DTD SVG 1.1//EN" "http://www.w3.org/Graphics/SVG/1.1/DTD/svg11.dtd">
<svg version="1.1" id="Layer_1" xmlns="http://www.w3.org/2000/svg" xmlns:xlink="http://www.w3.org/1999/xlink" x="0px" y="0px"
	 width="612px" height="792px" viewBox="0 0 612 792" enable-background="new 0 0 612 792" xml:space="preserve">
<path fill="#F85C70" d="M61.2,243c0-33.756,27.444-61.2,61.2-61.2h367.2c33.756,0,61.2,27.444,61.2,61.2v244.8h-61.2V243H122.4
	v244.8H61.2V243z M0,536.76C0,526.624,8.224,518.4,18.36,518.4h575.28c10.137,0,18.36,8.224,18.36,18.359
	c0,40.545-32.895,73.44-73.44,73.44H73.44C32.895,610.2,0,577.305,0,536.76z M268.706,351.056L239.063,380.7l29.644,29.644
	c8.989,8.988,8.989,23.523,0,32.417c-8.989,8.893-23.523,8.988-32.417,0l-45.9-45.9c-8.989-8.988-8.989-23.523,0-32.417l45.9-45.9
	c8.989-8.989,23.523-8.989,32.417,0c8.894,8.989,8.989,23.523,0,32.417V351.056z M375.807,318.544l45.899,45.9
	c8.989,8.989,8.989,23.524,0,32.417l-45.899,45.9c-8.989,8.988-23.524,8.988-32.417,0c-8.894-8.989-8.989-23.523,0-32.417
	l29.644-29.644l-29.644-29.644c-8.989-8.989-8.989-23.523,0-32.417c8.988-8.894,23.523-8.989,32.417,0V318.544z"/>
</svg>
