<?xml version="1.0" encoding="utf-8"?>
<!-- Generator: Adobe Illustrator 16.0.0, SVG Export Plug-In . SVG Version: 6.00 Build 0)  -->
<!DOCTYPE svg PUBLIC "-//W3C//DTD SVG 1.1//EN" "http://www.w3.org/Graphics/SVG/1.1/DTD/svg11.dtd">
<svg version="1.1" id="Layer_1" xmlns="http://www.w3.org/2000/svg" xmlns:xlink="http://www.w3.org/1999/xlink" x="0px" y="0px"
	 width="48px" height="46px" viewBox="0 0 48 46" enable-background="new 0 0 48 46" xml:space="preserve">
<path opacity="0.8" fill="#F85C70" stroke="#404145" stroke-width="1.5" stroke-linejoin="round" stroke-miterlimit="10" d="M45,43
	H11c-1.1,0-2-0.9-2-2v-3h15l1,1h6l1-1h15v3C47,42.1,46.1,43,45,43z"/>
<path fill="none" stroke="#404145" stroke-width="1.5" stroke-linejoin="round" stroke-miterlimit="10" d="M26,16h16
	c1.1,0,2,0.9,2,2v20"/>
<path fill="none" stroke="#404145" stroke-width="1.5" stroke-linejoin="round" stroke-miterlimit="10" d="M12,38V18
	c0-1.1,0.9-2,2-2h6"/>
<path opacity="0.8" fill="#F85C70" d="M10,29H3c-1.1,0-2-0.9-2-2v-3h9"/>
<path fill="none" stroke="#404145" stroke-width="1.5" stroke-linejoin="round" stroke-miterlimit="10" d="M10,29H3
	c-1.1,0-2-0.9-2-2v-3h9"/>
<path fill="none" stroke="#404145" stroke-width="1.5" stroke-linejoin="round" stroke-miterlimit="10" d="M4,24V4c0-1.1,0.9-2,2-2
	h28c1.1,0,2,0.9,2,2v10"/>
<path fill="none" stroke="#404145" stroke-width="1.5" stroke-linejoin="round" stroke-miterlimit="10" d="M26,12l-3-3l-3,3"/>
<path fill="none" stroke="#404145" stroke-width="1.5" stroke-linejoin="round" stroke-miterlimit="10" d="M26,20l-3,3l-3-3"/>
<path fill="none" stroke="#404145" stroke-width="1.5" stroke-linejoin="round" stroke-miterlimit="10" d="M23,9v14"/>
</svg>
