<?xml version="1.0" encoding="utf-8"?>
<!-- Generator: Adobe Illustrator 16.0.0, SVG Export Plug-In . SVG Version: 6.00 Build 0)  -->
<!DOCTYPE svg PUBLIC "-//W3C//DTD SVG 1.1//EN" "http://www.w3.org/Graphics/SVG/1.1/DTD/svg11.dtd">
<svg version="1.1" id="Layer_1" xmlns="http://www.w3.org/2000/svg" xmlns:xlink="http://www.w3.org/1999/xlink" x="0px" y="0px"
	 width="612px" height="792px" viewBox="0 0 612 792" enable-background="new 0 0 612 792" xml:space="preserve">
<path fill="#F85C70" d="M0,166.5C0,124.306,34.306,90,76.5,90h344.25c42.194,0,76.5,34.306,76.5,76.5V243
	c0,42.194-34.306,76.5-76.5,76.5H76.5C34.306,319.5,0,285.194,0,243V166.5z M191.25,510.75c0-21.157,17.093-38.25,38.25-38.25
	v-19.125c0-52.833,42.792-95.625,95.625-95.625H497.25c21.157,0,38.25-17.093,38.25-38.25v-38.25V173.074
	c44.585,15.778,76.5,58.212,76.5,108.176v38.25c0,63.352-51.398,114.75-114.75,114.75H325.125c-10.519,0-19.125,8.606-19.125,19.125
	V472.5c21.157,0,38.25,17.093,38.25,38.25v153c0,21.157-17.093,38.25-38.25,38.25h-76.5c-21.157,0-38.25-17.093-38.25-38.25V510.75z
	"/>
</svg>
