<?xml version="1.0" encoding="utf-8"?>
<!-- Generator: Adobe Illustrator 16.0.0, SVG Export Plug-In . SVG Version: 6.00 Build 0)  -->
<!DOCTYPE svg PUBLIC "-//W3C//DTD SVG 1.1//EN" "http://www.w3.org/Graphics/SVG/1.1/DTD/svg11.dtd">
<svg version="1.1" id="Layer_1" xmlns="http://www.w3.org/2000/svg" xmlns:xlink="http://www.w3.org/1999/xlink" x="0px" y="0px"
	 width="612px" height="792px" viewBox="0 0 612 792" enable-background="new 0 0 612 792" xml:space="preserve">
<path fill="#F85C70" d="M320.822,155.025l275.399,153c14.727,8.224,20.081,26.871,11.857,41.597
	c-8.224,14.726-26.87,20.081-41.597,11.857L306,216.799L45.422,361.575c-14.726,8.224-33.373,2.869-41.597-11.857
	c-8.224-14.727-2.869-33.374,11.857-41.597l275.496-153.096c9.275-5.164,20.463-5.164,29.74,0H320.822z M306,380.7
	c-21.133,0-38.25-17.117-38.25-38.25c0-21.133,17.117-38.25,38.25-38.25c21.133,0,38.25,17.117,38.25,38.25
	C344.25,363.583,327.133,380.7,306,380.7z M137.7,472.5c-21.133,0-38.25-17.117-38.25-38.25S116.567,396,137.7,396
	c21.133,0,38.25,17.117,38.25,38.25S158.833,472.5,137.7,472.5z M512.55,434.25c0,21.133-17.116,38.25-38.25,38.25
	c-21.133,0-38.25-17.117-38.25-38.25S453.167,396,474.3,396C495.434,396,512.55,413.117,512.55,434.25z M216.973,621.102
	l-25.723-47.717V610.2c0,16.926-13.674,30.6-30.6,30.6h-45.9c-16.926,0-30.6-13.674-30.6-30.6v-36.815l-25.723,47.717
	c-6.024,11.188-19.89,15.3-31.078,9.371c-11.188-5.929-15.3-19.891-9.371-31.078l36.242-67.225
	c14.631-27.253,43.127-44.274,74.109-44.274h18.647c15.587,0,30.504,4.304,43.414,12.049l32.13-59.574
	c14.63-27.253,43.127-44.274,74.109-44.274h18.646c30.982,0,59.384,17.021,74.109,44.274l32.13,59.574
	c12.91-7.745,27.827-12.049,43.414-12.049h18.646c30.983,0,59.384,17.021,74.109,44.274l36.242,67.225
	c6.024,11.188,1.817,25.054-9.371,31.078s-25.054,1.816-31.078-9.371l-25.628-47.717V610.2c0,16.926-13.674,30.6-30.6,30.6h-45.9
	c-16.925,0-30.6-13.674-30.6-30.6v-36.815l-25.723,47.717c-6.024,11.188-19.891,15.3-31.078,9.371
	c-11.188-5.929-15.301-19.891-9.372-31.078l34.712-64.547c-1.625-1.626-3.06-3.442-4.111-5.547l-25.628-47.717V533.7
	c0,16.926-13.674,30.6-30.6,30.6h-45.9c-16.925,0-30.6-13.674-30.6-30.6v-52.116l-25.723,47.717
	c-1.147,2.104-2.486,3.921-4.112,5.547l34.711,64.547c6.024,11.188,1.817,25.054-9.371,31.078s-25.054,1.816-31.078-9.371H216.973z"
	/>
</svg>
