<?xml version="1.0" encoding="utf-8"?>
<!-- Generator: Adobe Illustrator 16.0.0, SVG Export Plug-In . SVG Version: 6.00 Build 0)  -->
<!DOCTYPE svg PUBLIC "-//W3C//DTD SVG 1.1//EN" "http://www.w3.org/Graphics/SVG/1.1/DTD/svg11.dtd">
<svg version="1.1" id="Layer_1" xmlns="http://www.w3.org/2000/svg" xmlns:xlink="http://www.w3.org/1999/xlink" x="0px" y="0px"
	 width="46px" height="49px" viewBox="0 0 46 49" enable-background="new 0 0 46 49" xml:space="preserve">
<path fill="none" stroke="#404145" stroke-width="1.5" stroke-miterlimit="10" d="M23.01,2C21.26,4.62,9.58,10,5,10
	c0,8.73,0,11.48,0,19c0,8.93,17,18.71,18,18.99C24,47.71,41,37.25,41,30c0-7.52,0-11.27,0-20C36,10,24.76,4.62,23.01,2z"/>
<path opacity="0.8" fill="#F85C70" d="M14,13h4v2h3v-2h4v2h3v-2h4v6l-4,3.5V29l4,2v5H14v-5l4-2v-6.5L14,19V13z"/>
<path fill="none" stroke="#404145" stroke-width="1.5" stroke-miterlimit="10" d="M18.05,15v-2H14v5c0,0.31,0.14,1.12,0.38,1.32
	L18,22v7"/>
<path fill="none" stroke="#404145" stroke-width="1.5" stroke-miterlimit="10" d="M28,15v-2h4v5c0,0.31-0.141,1.12-0.38,1.32
	L28,22.38V29"/>
<path fill="none" stroke="#404145" stroke-width="1.5" stroke-miterlimit="10" d="M22,17h-5"/>
<path fill="none" stroke="#404145" stroke-width="1.5" stroke-miterlimit="10" d="M29,17h-5"/>
<path fill="none" stroke="#404145" stroke-width="1.5" stroke-miterlimit="10" d="M25,15v-2h-4v2"/>
<path fill="none" stroke="#404145" stroke-width="1.5" stroke-miterlimit="10" d="M22,30h-6c-1.1,0-2,0.9-2,2v4h18v-4
	c0-1.1-0.9-2-2-2h-3.92"/>
</svg>
