<?xml version="1.0" encoding="utf-8"?>
<!-- Generator: Adobe Illustrator 16.0.0, SVG Export Plug-In . SVG Version: 6.00 Build 0)  -->
<!DOCTYPE svg PUBLIC "-//W3C//DTD SVG 1.1//EN" "http://www.w3.org/Graphics/SVG/1.1/DTD/svg11.dtd">
<svg version="1.1" id="Layer_1" xmlns="http://www.w3.org/2000/svg" xmlns:xlink="http://www.w3.org/1999/xlink" x="0px" y="0px"
	 width="46px" height="46px" viewBox="0 0 46 46" enable-background="new 0 0 46 46" xml:space="preserve">
<path opacity="0.8" fill="#F85C70" d="M40,19c0,3.31-2.689,6-6,6s-6-2.69-6-6s2.689-6,6-6"/>
<path fill="none" stroke="#404145" stroke-width="1.5" stroke-miterlimit="10" d="M40,19c0,3.31-2.689,6-6,6s-6-2.69-6-6
	s2.689-6,6-6"/>
<path fill="none" stroke="#404145" stroke-width="1.5" stroke-miterlimit="10" d="M16,14h8"/>
<path fill="none" stroke="#404145" stroke-width="1.5" stroke-miterlimit="10" d="M16,18h8"/>
<path fill="none" stroke="#404145" stroke-width="1.5" stroke-miterlimit="10" d="M16,22h5"/>
<path fill="none" stroke="#404145" stroke-width="1.5" stroke-linejoin="round" stroke-miterlimit="10" d="M23,42
	c4.418,0,8-3.582,8-8s-3.582-8-8-8c-4.418,0-8,3.582-8,8S18.582,42,23,42z"/>
<path opacity="0.8" fill="#F85C70" stroke="#404145" stroke-width="1.5" stroke-miterlimit="10" d="M36,11v6h6
	C42,13.69,39.311,11,36,11z"/>
<path fill="none" stroke="#404145" stroke-width="1.5" stroke-linejoin="round" stroke-miterlimit="10" d="M28,40l5,5"/>
<path fill="none" stroke="#404145" stroke-width="1.5" stroke-linejoin="round" stroke-miterlimit="10" d="M20,37v-3"/>
<path fill="none" stroke="#404145" stroke-width="1.5" stroke-linejoin="round" stroke-miterlimit="10" d="M23,37v-7"/>
<path fill="none" stroke="#404145" stroke-width="1.5" stroke-linejoin="round" stroke-miterlimit="10" d="M26,37v-5"/>
<path fill="none" stroke="#404145" stroke-width="1.5" stroke-linejoin="round" stroke-miterlimit="10" d="M33,38h11
	c0.55,0,1-0.45,1-1V2c0-0.55-0.45-1-1-1H11c-0.55,0-1,0.45-1,1v35c0,0.55,0.45,1,1,1h2"/>
<path fill="none" stroke="#404145" stroke-width="1.5" stroke-linejoin="round" stroke-miterlimit="10" d="M12,7h31"/>
<path fill="none" stroke="#404145" stroke-width="1.5" stroke-linejoin="round" stroke-miterlimit="10" d="M13,4h2"/>
<path fill="none" stroke="#404145" stroke-width="1.5" stroke-linejoin="round" stroke-miterlimit="10" d="M16,4h2"/>
<path opacity="0.8" fill="#F85C70" stroke="#404145" stroke-width="1.5" stroke-linejoin="round" stroke-miterlimit="10" d="M3.5,10
	C2.12,10,1,10.9,1,12v28l2.5,5L6,40V12C6,10.9,4.88,10,3.5,10z"/>
<path fill="none" stroke="#404145" stroke-width="1.5" stroke-linejoin="round" stroke-miterlimit="10" d="M1,16h5"/>
</svg>
