<?xml version="1.0" encoding="utf-8"?>
<!-- Generator: Adobe Illustrator 16.0.0, SVG Export Plug-In . SVG Version: 6.00 Build 0)  -->
<!DOCTYPE svg PUBLIC "-//W3C//DTD SVG 1.1//EN" "http://www.w3.org/Graphics/SVG/1.1/DTD/svg11.dtd">
<svg version="1.1" id="Layer_1" xmlns="http://www.w3.org/2000/svg" xmlns:xlink="http://www.w3.org/1999/xlink" x="0px" y="0px"
	 width="612px" height="792px" viewBox="0 0 612 792" enable-background="new 0 0 612 792" xml:space="preserve">
<path fill="#F85C70" d="M299.58,46.969c4.235-0.82,8.606-0.82,12.841,0l273.214,54.643c15.3,3.006,26.365,16.53,26.365,32.103
	s-11.065,29.097-26.365,32.103l-104.777,21.038v78.003c0,96.581-78.276,174.856-174.857,174.856s-174.857-78.275-174.857-174.856
	v-78.003L65.571,173.74v88.931l21.447,107.1c1.229,6.42-0.41,13.114-4.508,18.168c-4.098,5.055-10.382,8.06-16.939,8.06H21.857
	c-6.557,0-12.704-2.869-16.939-8.06c-4.235-5.191-5.874-11.748-4.508-18.168l21.447-107.1v-98.084C8.879,160.08,0,147.785,0,133.714
	c0-15.573,11.065-29.097,26.365-32.103L299.58,46.969z M176.36,487.8l113.657,120.761c8.606,9.153,23.223,9.153,31.83,0
	L435.504,487.8c100.679,20.354,176.359,109.286,176.359,215.977c0,23.223-18.852,41.938-41.938,41.938H41.938
	C18.852,745.714,0,726.862,0,703.775C0,597.086,75.817,508.154,176.36,487.8L176.36,487.8z"/>
</svg>
