<?xml version="1.0" encoding="utf-8"?>
<!-- Generator: Adobe Illustrator 16.0.0, SVG Export Plug-In . SVG Version: 6.00 Build 0)  -->
<!DOCTYPE svg PUBLIC "-//W3C//DTD SVG 1.1//EN" "http://www.w3.org/Graphics/SVG/1.1/DTD/svg11.dtd">
<svg version="1.1" id="Layer_1" xmlns="http://www.w3.org/2000/svg" xmlns:xlink="http://www.w3.org/1999/xlink" x="0px" y="0px"
	 width="612px" height="792px" viewBox="0 0 612 792" enable-background="new 0 0 612 792" xml:space="preserve">
<path fill="#F85C70" d="M73.751,292.486l121.324,332.297C110.208,583.664,51.757,496.646,51.757,396
	C51.757,359.065,59.646,324.162,73.751,292.486z M477.646,383.21c0-31.437-11.235-53.191-20.918-70.165
	c-12.909-20.918-24.981-38.728-24.981-59.646c0-23.428,17.69-45.183,42.673-45.183c1.075,0,2.151,0.12,3.347,0.239
	C432.464,166.978,372.221,141.638,306,141.638c-88.812,0-166.985,45.541-212.526,114.63c5.977,0.239,11.594,0.358,16.375,0.358
	c26.536,0,67.774-3.227,67.774-3.227c13.746-0.837,15.3,19.364,1.673,20.918c0,0-13.746,1.554-29.046,2.391l92.637,275.399
	l55.701-166.865l-39.564-108.534c-13.746-0.837-26.656-2.391-26.656-2.391c-13.746-0.837-12.073-21.755,1.554-20.918
	c0,0,41.955,3.227,66.938,3.227c26.536,0,67.774-3.227,67.774-3.227c13.746-0.837,15.3,19.364,1.673,20.918
	c0,0-13.746,1.554-29.046,2.391l91.92,273.368l25.34-84.748C469.279,430.186,477.646,404.965,477.646,383.21L477.646,383.21z
	 M310.423,418.232l-76.261,221.73c22.831,6.694,46.856,10.399,71.838,10.399c29.644,0,57.973-5.14,84.389-14.463
	c-0.717-1.076-1.314-2.271-1.793-3.467L310.423,418.232z M529.165,273.958c1.075,8.128,1.673,16.734,1.673,26.177
	c0,25.819-4.781,54.746-19.363,91.083l-77.695,224.6C509.442,571.711,560.243,489.832,560.243,396
	C560.243,351.773,549.007,310.177,529.165,273.958L529.165,273.958z M602.438,396c0,163.519-133.038,296.438-296.438,296.438
	C142.481,692.438,9.563,559.399,9.563,396C9.563,232.481,142.481,99.563,306,99.563C469.399,99.563,602.438,232.481,602.438,396z
	 M588.811,396c0-155.988-126.941-282.811-282.811-282.811C150.012,113.189,23.189,240.012,23.189,396S150.131,678.811,306,678.811
	C461.988,678.811,588.811,551.988,588.811,396z"/>
</svg>
